<?xml version="1.0" encoding="UTF-8" standalone="no"?><svg width="1247.506" height="1247.506" xmlns="http://www.w3.org/2000/svg"><rect x="0" y="0" width="1247.506" height="1247.506" fill="#FFFFFF"/><defs><linearGradient id="grad1" gradientUnits="userSpaceOnUse" x1="-115.466" y1="77.463" x2="232.897" y2="79.468"><stop offset="0%" stop-color="#E6F0F2"/><stop offset="50%" stop-color="#1E5B99"/><stop offset="100%" stop-color="#FFFAE5"/></linearGradient><linearGradient id="grad2" gradientUnits="userSpaceOnUse" x1="164.385" y1="26.1" x2="-228.324" y2="-62.234"><stop offset="0%" stop-color="#FFFAE5"/><stop offset="50%" stop-color="#190F4C"/><stop offset="100%" stop-color="#1E5B99"/></linearGradient><linearGradient id="grad3" gradientUnits="userSpaceOnUse" x1="-202.385" y1="-224.153" x2="98.658" y2="203.334"><stop offset="0%" stop-color="#E6F0F2"/><stop offset="50%" stop-color="#1E5B99"/><stop offset="100%" stop-color="#FFFAE5"/></linearGradient><linearGradient id="grad4" gradientUnits="userSpaceOnUse" x1="-230.258" y1="-20.411" x2="183.224" y2="-348.396"><stop offset="0%" stop-color="#FFFAE5"/><stop offset="50%" stop-color="#190F4C"/><stop offset="100%" stop-color="#1E5B99"/></linearGradient><linearGradient id="grad5" gradientUnits="userSpaceOnUse" x1="25.125" y1="-491.829" x2="-156.435" y2="3.73"><stop offset="0%" stop-color="#E6F0F2"/><stop offset="50%" stop-color="#1E5B99"/><stop offset="100%" stop-color="#FFFAE5"/></linearGradient><linearGradient id="grad6" gradientUnits="userSpaceOnUse" x1="514.682" y1="99.131" x2="-10.274" y2="44.7"><stop offset="0%" stop-color="#FFFAE5"/><stop offset="50%" stop-color="#190F4C"/><stop offset="100%" stop-color="#1E5B99"/></linearGradient><linearGradient id="grad7" gradientUnits="userSpaceOnUse" x1="-61.832" y1="412.77" x2="-76.24" y2="-187.057"><stop offset="0%" stop-color="#E6F0F2"/><stop offset="50%" stop-color="#1E5B99"/><stop offset="100%" stop-color="#FFFAE5"/></linearGradient><linearGradient id="grad8" gradientUnits="userSpaceOnUse" x1="-127.471" y1="-428.029" x2="87.535" y2="132.125"><stop offset="0%" stop-color="#FFFAE5"/><stop offset="50%" stop-color="#190F4C"/><stop offset="100%" stop-color="#1E5B99"/></linearGradient><linearGradient id="grad9" gradientUnits="userSpaceOnUse" x1="13.177" y1="336.498" x2="177.262" y2="-240.629"><stop offset="0%" stop-color="#E6F0F2"/><stop offset="50%" stop-color="#1E5B99"/><stop offset="100%" stop-color="#FFFAE5"/></linearGradient><linearGradient id="grad10" gradientUnits="userSpaceOnUse" x1="298.445" y1="-48.954" x2="-290.681" y2="64.76"><stop offset="0%" stop-color="#FFFAE5"/><stop offset="50%" stop-color="#190F4C"/><stop offset="100%" stop-color="#1E5B99"/></linearGradient><linearGradient id="grad11" gradientUnits="userSpaceOnUse" x1="119.052" y1="213.89" x2="-199.987" y2="-97.822"><stop offset="0%" stop-color="#FFFAE5"/><stop offset="50%" stop-color="#190F4C"/><stop offset="100%" stop-color="#1E5B99"/></linearGradient><linearGradient id="grad12" gradientUnits="userSpaceOnUse" x1="119.052" y1="213.89" x2="-199.987" y2="-97.822"><stop offset="0%" stop-color="#FFFAE5"/><stop offset="50%" stop-color="#190F4C"/><stop offset="100%" stop-color="#1E5B99"/></linearGradient><linearGradient id="grad13" gradientUnits="userSpaceOnUse" x1="119.052" y1="213.89" x2="-199.987" y2="-97.822"><stop offset="0%" stop-color="#FFFAE5"/><stop offset="50%" stop-color="#190F4C"/><stop offset="100%" stop-color="#1E5B99"/></linearGradient><linearGradient id="grad14" gradientUnits="userSpaceOnUse" x1="119.052" y1="213.89" x2="-199.987" y2="-97.822"><stop offset="0%" stop-color="#FFFAE5"/><stop offset="50%" stop-color="#190F4C"/><stop offset="100%" stop-color="#1E5B99"/></linearGradient><linearGradient id="grad15" gradientUnits="userSpaceOnUse" x1="119.052" y1="213.89" x2="-199.987" y2="-97.822"><stop offset="0%" stop-color="#FFFAE5"/><stop offset="50%" stop-color="#190F4C"/><stop offset="100%" stop-color="#1E5B99"/></linearGradient><linearGradient id="grad16" gradientUnits="userSpaceOnUse" x1="119.052" y1="213.89" x2="-199.987" y2="-97.822"><stop offset="0%" stop-color="#FFFAE5"/><stop offset="50%" stop-color="#190F4C"/><stop offset="100%" stop-color="#1E5B99"/></linearGradient><linearGradient id="grad17" gradientUnits="userSpaceOnUse" x1="119.052" y1="213.89" x2="-199.987" y2="-97.822"><stop offset="0%" stop-color="#FFFAE5"/><stop offset="50%" stop-color="#190F4C"/><stop offset="100%" stop-color="#1E5B99"/></linearGradient><linearGradient id="grad18" gradientUnits="userSpaceOnUse" x1="119.052" y1="213.89" x2="-199.987" y2="-97.822"><stop offset="0%" stop-color="#FFFAE5"/><stop offset="50%" stop-color="#190F4C"/><stop offset="100%" stop-color="#1E5B99"/></linearGradient><linearGradient id="grad19" gradientUnits="userSpaceOnUse" x1="119.052" y1="213.89" x2="-199.987" y2="-97.822"><stop offset="0%" stop-color="#FFFAE5"/><stop offset="50%" stop-color="#190F4C"/><stop offset="100%" stop-color="#1E5B99"/></linearGradient><linearGradient id="grad20" gradientUnits="userSpaceOnUse" x1="119.052" y1="213.89" x2="-199.987" y2="-97.822"><stop offset="0%" stop-color="#FFFAE5"/><stop offset="50%" stop-color="#190F4C"/><stop offset="100%" stop-color="#1E5B99"/></linearGradient><linearGradient id="grad21" gradientUnits="userSpaceOnUse" x1="119.052" y1="213.89" x2="-199.987" y2="-97.822"><stop offset="0%" stop-color="#FFFAE5"/><stop offset="50%" stop-color="#190F4C"/><stop offset="100%" stop-color="#1E5B99"/></linearGradient><linearGradient id="grad22" gradientUnits="userSpaceOnUse" x1="119.052" y1="213.89" x2="-199.987" y2="-97.822"><stop offset="0%" stop-color="#FFFAE5"/><stop offset="50%" stop-color="#190F4C"/><stop offset="100%" stop-color="#1E5B99"/></linearGradient><linearGradient id="grad23" gradientUnits="userSpaceOnUse" x1="119.052" y1="213.89" x2="-199.987" y2="-97.822"><stop offset="0%" stop-color="#FFFAE5"/><stop offset="50%" stop-color="#190F4C"/><stop offset="100%" stop-color="#1E5B99"/></linearGradient><linearGradient id="grad24" gradientUnits="userSpaceOnUse" x1="119.052" y1="213.89" x2="-199.987" y2="-97.822"><stop offset="0%" stop-color="#FFFAE5"/><stop offset="50%" stop-color="#190F4C"/><stop offset="100%" stop-color="#1E5B99"/></linearGradient><linearGradient id="grad25" gradientUnits="userSpaceOnUse" x1="119.052" y1="213.89" x2="-199.987" y2="-97.822"><stop offset="0%" stop-color="#FFFAE5"/><stop offset="50%" stop-color="#190F4C"/><stop offset="100%" stop-color="#1E5B99"/></linearGradient><linearGradient id="grad26" gradientUnits="userSpaceOnUse" x1="119.052" y1="213.89" x2="-199.987" y2="-97.822"><stop offset="0%" stop-color="#FFFAE5"/><stop offset="50%" stop-color="#190F4C"/><stop offset="100%" stop-color="#1E5B99"/></linearGradient><linearGradient id="grad27" gradientUnits="userSpaceOnUse" x1="119.052" y1="213.89" x2="-199.987" y2="-97.822"><stop offset="0%" stop-color="#FFFAE5"/><stop offset="50%" stop-color="#190F4C"/><stop offset="100%" stop-color="#1E5B99"/></linearGradient><linearGradient id="grad28" gradientUnits="userSpaceOnUse" x1="119.052" y1="213.89" x2="-199.987" y2="-97.822"><stop offset="0%" stop-color="#FFFAE5"/><stop offset="50%" stop-color="#190F4C"/><stop offset="100%" stop-color="#1E5B99"/></linearGradient><linearGradient id="grad29" gradientUnits="userSpaceOnUse" x1="119.052" y1="213.89" x2="-199.987" y2="-97.822"><stop offset="0%" stop-color="#FFFAE5"/><stop offset="50%" stop-color="#190F4C"/><stop offset="100%" stop-color="#1E5B99"/></linearGradient><linearGradient id="grad30" gradientUnits="userSpaceOnUse" x1="119.052" y1="213.89" x2="-199.987" y2="-97.822"><stop offset="0%" stop-color="#FFFAE5"/><stop offset="50%" stop-color="#190F4C"/><stop offset="100%" stop-color="#1E5B99"/></linearGradient><linearGradient id="grad31" gradientUnits="userSpaceOnUse" x1="119.052" y1="213.89" x2="-199.987" y2="-97.822"><stop offset="0%" stop-color="#FFFAE5"/><stop offset="50%" stop-color="#190F4C"/><stop offset="100%" stop-color="#1E5B99"/></linearGradient><linearGradient id="grad32" gradientUnits="userSpaceOnUse" x1="119.052" y1="213.89" x2="-199.987" y2="-97.822"><stop offset="0%" stop-color="#FFFAE5"/><stop offset="50%" stop-color="#190F4C"/><stop offset="100%" stop-color="#1E5B99"/></linearGradient><linearGradient id="grad33" gradientUnits="userSpaceOnUse" x1="119.052" y1="213.89" x2="-199.987" y2="-97.822"><stop offset="0%" stop-color="#FFFAE5"/><stop offset="50%" stop-color="#190F4C"/><stop offset="100%" stop-color="#1E5B99"/></linearGradient><linearGradient id="grad34" gradientUnits="userSpaceOnUse" x1="119.052" y1="213.89" x2="-199.987" y2="-97.822"><stop offset="0%" stop-color="#FFFAE5"/><stop offset="50%" stop-color="#190F4C"/><stop offset="100%" stop-color="#1E5B99"/></linearGradient><linearGradient id="grad35" gradientUnits="userSpaceOnUse" x1="119.052" y1="213.89" x2="-199.987" y2="-97.822"><stop offset="0%" stop-color="#FFFAE5"/><stop offset="50%" stop-color="#190F4C"/><stop offset="100%" stop-color="#1E5B99"/></linearGradient><linearGradient id="grad36" gradientUnits="userSpaceOnUse" x1="119.052" y1="213.89" x2="-199.987" y2="-97.822"><stop offset="0%" stop-color="#FFFAE5"/><stop offset="50%" stop-color="#190F4C"/><stop offset="100%" stop-color="#1E5B99"/></linearGradient><linearGradient id="grad37" gradientUnits="userSpaceOnUse" x1="119.052" y1="213.89" x2="-199.987" y2="-97.822"><stop offset="0%" stop-color="#FFFAE5"/><stop offset="50%" stop-color="#190F4C"/><stop offset="100%" stop-color="#1E5B99"/></linearGradient><linearGradient id="grad38" gradientUnits="userSpaceOnUse" x1="119.052" y1="213.89" x2="-199.987" y2="-97.822"><stop offset="0%" stop-color="#FFFAE5"/><stop offset="50%" stop-color="#190F4C"/><stop offset="100%" stop-color="#1E5B99"/></linearGradient><linearGradient id="grad39" gradientUnits="userSpaceOnUse" x1="119.052" y1="213.89" x2="-199.987" y2="-97.822"><stop offset="0%" stop-color="#FFFAE5"/><stop offset="50%" stop-color="#190F4C"/><stop offset="100%" stop-color="#1E5B99"/></linearGradient><linearGradient id="grad40" gradientUnits="userSpaceOnUse" x1="119.052" y1="213.89" x2="-199.987" y2="-97.822"><stop offset="0%" stop-color="#FFFAE5"/><stop offset="50%" stop-color="#190F4C"/><stop offset="100%" stop-color="#1E5B99"/></linearGradient><linearGradient id="grad41" gradientUnits="userSpaceOnUse" x1="119.052" y1="213.89" x2="-199.987" y2="-97.822"><stop offset="0%" stop-color="#FFFAE5"/><stop offset="50%" stop-color="#190F4C"/><stop offset="100%" stop-color="#1E5B99"/></linearGradient><linearGradient id="grad42" gradientUnits="userSpaceOnUse" x1="119.052" y1="213.89" x2="-199.987" y2="-97.822"><stop offset="0%" stop-color="#FFFAE5"/><stop offset="50%" stop-color="#190F4C"/><stop offset="100%" stop-color="#1E5B99"/></linearGradient><linearGradient id="grad43" gradientUnits="userSpaceOnUse" x1="-49.391" y1="288.519" x2="-237.618" y2="-115.858"><stop offset="0%" stop-color="#E6F0F2"/><stop offset="50%" stop-color="#1E5B99"/><stop offset="100%" stop-color="#FFFAE5"/></linearGradient><linearGradient id="grad44" gradientUnits="userSpaceOnUse" x1="-49.391" y1="288.519" x2="-237.618" y2="-115.858"><stop offset="0%" stop-color="#E6F0F2"/><stop offset="50%" stop-color="#1E5B99"/><stop offset="100%" stop-color="#FFFAE5"/></linearGradient><linearGradient id="grad45" gradientUnits="userSpaceOnUse" x1="-49.391" y1="288.519" x2="-237.618" y2="-115.858"><stop offset="0%" stop-color="#E6F0F2"/><stop offset="50%" stop-color="#1E5B99"/><stop offset="100%" stop-color="#FFFAE5"/></linearGradient><linearGradient id="grad46" gradientUnits="userSpaceOnUse" x1="-49.391" y1="288.519" x2="-237.618" y2="-115.858"><stop offset="0%" stop-color="#E6F0F2"/><stop offset="50%" stop-color="#1E5B99"/><stop offset="100%" stop-color="#FFFAE5"/></linearGradient><linearGradient id="grad47" gradientUnits="userSpaceOnUse" x1="-49.391" y1="288.519" x2="-237.618" y2="-115.858"><stop offset="0%" stop-color="#E6F0F2"/><stop offset="50%" stop-color="#1E5B99"/><stop offset="100%" stop-color="#FFFAE5"/></linearGradient><linearGradient id="grad48" gradientUnits="userSpaceOnUse" x1="-49.391" y1="288.519" x2="-237.618" y2="-115.858"><stop offset="0%" stop-color="#E6F0F2"/><stop offset="50%" stop-color="#1E5B99"/><stop offset="100%" stop-color="#FFFAE5"/></linearGradient><linearGradient id="grad49" gradientUnits="userSpaceOnUse" x1="-49.391" y1="288.519" x2="-237.618" y2="-115.858"><stop offset="0%" stop-color="#E6F0F2"/><stop offset="50%" stop-color="#1E5B99"/><stop offset="100%" stop-color="#FFFAE5"/></linearGradient><linearGradient id="grad50" gradientUnits="userSpaceOnUse" x1="-49.391" y1="288.519" x2="-237.618" y2="-115.858"><stop offset="0%" stop-color="#E6F0F2"/><stop offset="50%" stop-color="#1E5B99"/><stop offset="100%" stop-color="#FFFAE5"/></linearGradient><linearGradient id="grad51" gradientUnits="userSpaceOnUse" x1="-49.391" y1="288.519" x2="-237.618" y2="-115.858"><stop offset="0%" stop-color="#E6F0F2"/><stop offset="50%" stop-color="#1E5B99"/><stop offset="100%" stop-color="#FFFAE5"/></linearGradient><linearGradient id="grad52" gradientUnits="userSpaceOnUse" x1="-49.391" y1="288.519" x2="-237.618" y2="-115.858"><stop offset="0%" stop-color="#E6F0F2"/><stop offset="50%" stop-color="#1E5B99"/><stop offset="100%" stop-color="#FFFAE5"/></linearGradient><linearGradient id="grad53" gradientUnits="userSpaceOnUse" x1="-49.391" y1="288.519" x2="-237.618" y2="-115.858"><stop offset="0%" stop-color="#E6F0F2"/><stop offset="50%" stop-color="#1E5B99"/><stop offset="100%" stop-color="#FFFAE5"/></linearGradient><linearGradient id="grad54" gradientUnits="userSpaceOnUse" x1="-49.391" y1="288.519" x2="-237.618" y2="-115.858"><stop offset="0%" stop-color="#E6F0F2"/><stop offset="50%" stop-color="#1E5B99"/><stop offset="100%" stop-color="#FFFAE5"/></linearGradient><linearGradient id="grad55" gradientUnits="userSpaceOnUse" x1="-49.391" y1="288.519" x2="-237.618" y2="-115.858"><stop offset="0%" stop-color="#E6F0F2"/><stop offset="50%" stop-color="#1E5B99"/><stop offset="100%" stop-color="#FFFAE5"/></linearGradient><linearGradient id="grad56" gradientUnits="userSpaceOnUse" x1="-49.391" y1="288.519" x2="-237.618" y2="-115.858"><stop offset="0%" stop-color="#E6F0F2"/><stop offset="50%" stop-color="#1E5B99"/><stop offset="100%" stop-color="#FFFAE5"/></linearGradient><linearGradient id="grad57" gradientUnits="userSpaceOnUse" x1="-49.391" y1="288.519" x2="-237.618" y2="-115.858"><stop offset="0%" stop-color="#E6F0F2"/><stop offset="50%" stop-color="#1E5B99"/><stop offset="100%" stop-color="#FFFAE5"/></linearGradient><linearGradient id="grad58" gradientUnits="userSpaceOnUse" x1="-49.391" y1="288.519" x2="-237.618" y2="-115.858"><stop offset="0%" stop-color="#E6F0F2"/><stop offset="50%" stop-color="#1E5B99"/><stop offset="100%" stop-color="#FFFAE5"/></linearGradient><linearGradient id="grad59" gradientUnits="userSpaceOnUse" x1="-49.391" y1="288.519" x2="-237.618" y2="-115.858"><stop offset="0%" stop-color="#E6F0F2"/><stop offset="50%" stop-color="#1E5B99"/><stop offset="100%" stop-color="#FFFAE5"/></linearGradient><linearGradient id="grad60" gradientUnits="userSpaceOnUse" x1="-49.391" y1="288.519" x2="-237.618" y2="-115.858"><stop offset="0%" stop-color="#E6F0F2"/><stop offset="50%" stop-color="#1E5B99"/><stop offset="100%" stop-color="#FFFAE5"/></linearGradient><linearGradient id="grad61" gradientUnits="userSpaceOnUse" x1="-49.391" y1="288.519" x2="-237.618" y2="-115.858"><stop offset="0%" stop-color="#E6F0F2"/><stop offset="50%" stop-color="#1E5B99"/><stop offset="100%" stop-color="#FFFAE5"/></linearGradient><linearGradient id="grad62" gradientUnits="userSpaceOnUse" x1="-49.391" y1="288.519" x2="-237.618" y2="-115.858"><stop offset="0%" stop-color="#E6F0F2"/><stop offset="50%" stop-color="#1E5B99"/><stop offset="100%" stop-color="#FFFAE5"/></linearGradient><linearGradient id="grad63" gradientUnits="userSpaceOnUse" x1="-49.391" y1="288.519" x2="-237.618" y2="-115.858"><stop offset="0%" stop-color="#E6F0F2"/><stop offset="50%" stop-color="#1E5B99"/><stop offset="100%" stop-color="#FFFAE5"/></linearGradient><linearGradient id="grad64" gradientUnits="userSpaceOnUse" x1="-49.391" y1="288.519" x2="-237.618" y2="-115.858"><stop offset="0%" stop-color="#E6F0F2"/><stop offset="50%" stop-color="#1E5B99"/><stop offset="100%" stop-color="#FFFAE5"/></linearGradient><linearGradient id="grad65" gradientUnits="userSpaceOnUse" x1="-49.391" y1="288.519" x2="-237.618" y2="-115.858"><stop offset="0%" stop-color="#E6F0F2"/><stop offset="50%" stop-color="#1E5B99"/><stop offset="100%" stop-color="#FFFAE5"/></linearGradient><linearGradient id="grad66" gradientUnits="userSpaceOnUse" x1="-49.391" y1="288.519" x2="-237.618" y2="-115.858"><stop offset="0%" stop-color="#E6F0F2"/><stop offset="50%" stop-color="#1E5B99"/><stop offset="100%" stop-color="#FFFAE5"/></linearGradient><linearGradient id="grad67" gradientUnits="userSpaceOnUse" x1="-49.391" y1="288.519" x2="-237.618" y2="-115.858"><stop offset="0%" stop-color="#E6F0F2"/><stop offset="50%" stop-color="#1E5B99"/><stop offset="100%" stop-color="#FFFAE5"/></linearGradient><linearGradient id="grad68" gradientUnits="userSpaceOnUse" x1="-49.391" y1="288.519" x2="-237.618" y2="-115.858"><stop offset="0%" stop-color="#E6F0F2"/><stop offset="50%" stop-color="#1E5B99"/><stop offset="100%" stop-color="#FFFAE5"/></linearGradient><linearGradient id="grad69" gradientUnits="userSpaceOnUse" x1="-49.391" y1="288.519" x2="-237.618" y2="-115.858"><stop offset="0%" stop-color="#E6F0F2"/><stop offset="50%" stop-color="#1E5B99"/><stop offset="100%" stop-color="#FFFAE5"/></linearGradient><linearGradient id="grad70" gradientUnits="userSpaceOnUse" x1="-49.391" y1="288.519" x2="-237.618" y2="-115.858"><stop offset="0%" stop-color="#E6F0F2"/><stop offset="50%" stop-color="#1E5B99"/><stop offset="100%" stop-color="#FFFAE5"/></linearGradient><linearGradient id="grad71" gradientUnits="userSpaceOnUse" x1="-49.391" y1="288.519" x2="-237.618" y2="-115.858"><stop offset="0%" stop-color="#E6F0F2"/><stop offset="50%" stop-color="#1E5B99"/><stop offset="100%" stop-color="#FFFAE5"/></linearGradient><linearGradient id="grad72" gradientUnits="userSpaceOnUse" x1="-49.391" y1="288.519" x2="-237.618" y2="-115.858"><stop offset="0%" stop-color="#E6F0F2"/><stop offset="50%" stop-color="#1E5B99"/><stop offset="100%" stop-color="#FFFAE5"/></linearGradient><linearGradient id="grad73" gradientUnits="userSpaceOnUse" x1="-49.391" y1="288.519" x2="-237.618" y2="-115.858"><stop offset="0%" stop-color="#E6F0F2"/><stop offset="50%" stop-color="#1E5B99"/><stop offset="100%" stop-color="#FFFAE5"/></linearGradient><linearGradient id="grad74" gradientUnits="userSpaceOnUse" x1="-49.391" y1="288.519" x2="-237.618" y2="-115.858"><stop offset="0%" stop-color="#E6F0F2"/><stop offset="50%" stop-color="#1E5B99"/><stop offset="100%" stop-color="#FFFAE5"/></linearGradient><linearGradient id="grad75" gradientUnits="userSpaceOnUse" x1="94.254" y1="-438.968" x2="-89.874" y2="-337.416"><stop offset="0%" stop-color="#FFFAE5"/><stop offset="50%" stop-color="#190F4C"/><stop offset="100%" stop-color="#1E5B99"/></linearGradient><linearGradient id="grad76" gradientUnits="userSpaceOnUse" x1="94.254" y1="-438.968" x2="-89.874" y2="-337.416"><stop offset="0%" stop-color="#FFFAE5"/><stop offset="50%" stop-color="#190F4C"/><stop offset="100%" stop-color="#1E5B99"/></linearGradient><linearGradient id="grad77" gradientUnits="userSpaceOnUse" x1="-118.162" y1="-301.653" x2="89.577" y2="-269.093"><stop offset="0%" stop-color="#FFFAE5"/><stop offset="50%" stop-color="#190F4C"/><stop offset="100%" stop-color="#1E5B99"/></linearGradient><linearGradient id="grad78" gradientUnits="userSpaceOnUse" x1="-12.786" y1="-436.525" x2="109.568" y2="-265.512"><stop offset="0%" stop-color="#E6F0F2"/><stop offset="50%" stop-color="#1E5B99"/><stop offset="100%" stop-color="#FFFAE5"/></linearGradient><linearGradient id="grad79" gradientUnits="userSpaceOnUse" x1="-70.743" y1="-482.338" x2="42.537" y2="-305.184"><stop offset="0%" stop-color="#FFFAE5"/><stop offset="50%" stop-color="#190F4C"/><stop offset="100%" stop-color="#1E5B99"/></linearGradient><linearGradient id="grad80" gradientUnits="userSpaceOnUse" x1="-150.984" y1="-392.184" x2="15.108" y2="-362.484"><stop offset="0%" stop-color="#E6F0F2"/><stop offset="50%" stop-color="#1E5B99"/><stop offset="100%" stop-color="#FFFAE5"/></linearGradient><linearGradient id="grad81" gradientUnits="userSpaceOnUse" x1="-150.984" y1="-392.184" x2="15.108" y2="-362.484"><stop offset="0%" stop-color="#E6F0F2"/><stop offset="50%" stop-color="#1E5B99"/><stop offset="100%" stop-color="#FFFAE5"/></linearGradient><linearGradient id="grad82" gradientUnits="userSpaceOnUse" x1="36.623" y1="-464.14" x2="-50.078" y2="-319.394"><stop offset="0%" stop-color="#E6F0F2"/><stop offset="50%" stop-color="#1E5B99"/><stop offset="100%" stop-color="#FFFAE5"/></linearGradient><linearGradient id="grad83" gradientUnits="userSpaceOnUse" x1="-51.267" y1="-433.394" x2="47.934" y2="-296.91"><stop offset="0%" stop-color="#FFFAE5"/><stop offset="50%" stop-color="#190F4C"/><stop offset="100%" stop-color="#1E5B99"/></linearGradient><linearGradient id="grad84" gradientUnits="userSpaceOnUse" x1="32.994" y1="-463.353" x2="-128.068" y2="-413.075"><stop offset="0%" stop-color="#E6F0F2"/><stop offset="50%" stop-color="#1E5B99"/><stop offset="100%" stop-color="#FFFAE5"/></linearGradient></defs><g id="instance2178" stroke-linejoin="round" stroke-linecap="round" fill-rule="evenodd" fill="none" transform="translate(623.753 623.753)"><path d=" M 0,0"/><path d=" M 133.735,-26.602 L 139.728,-17.129 L 143.024,-12.503 L 145.619,-9.567 L 148.181,-7.268 L 150.709,-5.605 L 153.836,-4.164 L 157.56,-2.943 L 163.113,-1.75 L 174.184,0 L 163.113,1.75 L 157.56,2.943 L 153.836,4.164 L 150.709,5.605 L 148.181,7.268 L 145.619,9.567 L 143.024,12.503 L 139.728,17.129 L 133.735,26.602 L 135.647,37.646 L 136.921,43.181 L 138.196,46.887 L 139.683,49.992 L 141.382,52.496 L 143.719,55.024 L 146.693,57.576 L 151.366,60.804 L 160.925,66.657 L 150.027,64.037 L 144.44,63.015 L 140.532,62.717 L 137.092,62.852 L 134.12,63.421 L 130.874,64.565 L 127.352,66.284 L 122.537,69.297 L 113.375,75.755 L 110.915,86.691 L 109.974,92.292 L 109.733,96.203 L 109.919,99.641 L 110.531,102.604 L 111.722,105.834 L 113.493,109.33 L 116.576,114.101 L 123.167,123.167 L 114.101,116.576 L 109.33,113.493 L 105.834,111.722 L 102.604,110.531 L 99.641,109.919 L 96.203,109.733 L 92.292,109.974 L 86.691,110.915 L 75.755,113.375 L 69.297,122.537 L 66.284,127.352 L 64.565,130.874 L 63.421,134.12 L 62.852,137.092 L 62.717,140.532 L 63.015,144.44 L 64.037,150.027 L 66.657,160.925 L 60.804,151.366 L 57.576,146.693 L 55.024,143.719 L 52.496,141.382 L 49.992,139.683 L 46.887,138.196 L 43.181,136.921 L 37.646,135.647 L 26.602,133.735 L 17.129,139.728 L 12.503,143.024 L 9.567,145.619 L 7.268,148.181 L 5.605,150.709 L 4.164,153.836 L 2.943,157.56 L 1.75,163.113 L 0,174.184 L -1.75,163.113 L -2.943,157.56 L -4.164,153.836 L -5.605,150.709 L -7.268,148.181 L -9.567,145.619 L -12.503,143.024 L -17.129,139.728 L -26.602,133.735 L -37.646,135.647 L -43.181,136.921 L -46.887,138.196 L -49.992,139.683 L -52.496,141.382 L -55.024,143.719 L -57.576,146.693 L -60.804,151.366 L -66.657,160.925 L -64.037,150.027 L -63.015,144.44 L -62.717,140.532 L -62.852,137.092 L -63.421,134.12 L -64.565,130.874 L -66.284,127.352 L -69.297,122.537 L -75.755,113.375 L -86.691,110.915 L -92.292,109.974 L -96.203,109.733 L -99.641,109.919 L -102.604,110.531 L -105.834,111.722 L -109.33,113.493 L -114.101,116.576 L -123.167,123.167 L -116.576,114.101 L -113.493,109.33 L -111.722,105.834 L -110.531,102.604 L -109.919,99.641 L -109.733,96.203 L -109.974,92.292 L -110.915,86.691 L -113.375,75.755 L -122.537,69.297 L -127.352,66.284 L -130.874,64.565 L -134.12,63.421 L -137.092,62.852 L -140.532,62.717 L -144.44,63.015 L -150.027,64.037 L -160.925,66.657 L -151.366,60.804 L -146.693,57.576 L -143.719,55.024 L -141.382,52.496 L -139.683,49.992 L -138.196,46.887 L -136.921,43.181 L -135.647,37.646 L -133.735,26.602 L -139.728,17.129 L -143.024,12.503 L -145.619,9.567 L -148.181,7.268 L -150.709,5.605 L -153.836,4.164 L -157.56,2.943 L -163.113,1.75 L -174.184,0 L -163.113,-1.75 L -157.56,-2.943 L -153.836,-4.164 L -150.709,-5.605 L -148.181,-7.268 L -145.619,-9.567 L -143.024,-12.503 L -139.728,-17.129 L -133.735,-26.602 L -135.647,-37.646 L -136.921,-43.181 L -138.196,-46.887 L -139.683,-49.992 L -141.382,-52.496 L -143.719,-55.024 L -146.693,-57.576 L -151.366,-60.804 L -160.925,-66.657 L -150.027,-64.037 L -144.44,-63.015 L -140.532,-62.717 L -137.092,-62.852 L -134.12,-63.421 L -130.874,-64.565 L -127.352,-66.284 L -122.537,-69.297 L -113.375,-75.755 L -110.915,-86.691 L -109.974,-92.292 L -109.733,-96.203 L -109.919,-99.641 L -110.531,-102.604 L -111.722,-105.834 L -113.493,-109.33 L -116.576,-114.101 L -123.167,-123.167 L -114.101,-116.576 L -109.33,-113.493 L -105.834,-111.722 L -102.604,-110.531 L -99.641,-109.919 L -96.203,-109.733 L -92.292,-109.974 L -86.691,-110.915 L -75.755,-113.375 L -69.297,-122.537 L -66.284,-127.352 L -64.565,-130.874 L -63.421,-134.12 L -62.852,-137.092 L -62.717,-140.532 L -63.015,-144.44 L -64.037,-150.027 L -66.657,-160.925 L -60.804,-151.366 L -57.576,-146.693 L -55.024,-143.719 L -52.496,-141.382 L -49.992,-139.683 L -46.887,-138.196 L -43.181,-136.921 L -37.646,-135.647 L -26.602,-133.735 L -17.129,-139.728 L -12.503,-143.024 L -9.567,-145.619 L -7.268,-148.181 L -5.605,-150.709 L -4.164,-153.836 L -2.943,-157.56 L -1.75,-163.113 L 0,-174.184 L 1.75,-163.113 L 2.943,-157.56 L 4.164,-153.836 L 5.605,-150.709 L 7.268,-148.181 L 9.567,-145.619 L 12.503,-143.024 L 17.129,-139.728 L 26.602,-133.735 L 37.646,-135.647 L 43.181,-136.921 L 46.887,-138.196 L 49.992,-139.683 L 52.496,-141.382 L 55.024,-143.719 L 57.576,-146.693 L 60.804,-151.366 L 66.657,-160.925 L 64.037,-150.027 L 63.015,-144.44 L 62.717,-140.532 L 62.852,-137.092 L 63.421,-134.12 L 64.565,-130.874 L 66.284,-127.352 L 69.297,-122.537 L 75.755,-113.375 L 86.691,-110.915 L 92.292,-109.974 L 96.203,-109.733 L 99.641,-109.919 L 102.604,-110.531 L 105.834,-111.722 L 109.33,-113.493 L 114.101,-116.576 L 123.167,-123.167 L 116.576,-114.101 L 113.493,-109.33 L 111.722,-105.834 L 110.531,-102.604 L 109.919,-99.641 L 109.733,-96.203 L 109.974,-92.292 L 110.915,-86.691 L 113.375,-75.755 L 122.537,-69.297 L 127.352,-66.284 L 130.874,-64.565 L 134.12,-63.421 L 137.092,-62.852 L 140.532,-62.717 L 144.44,-63.015 L 150.027,-64.037 L 160.925,-66.657 L 151.366,-60.804 L 146.693,-57.576 L 143.719,-55.024 L 141.382,-52.496 L 139.683,-49.992 L 138.196,-46.887 L 136.921,-43.181 L 135.647,-37.646 L 133.735,-26.602" fill="#7F7F7F" stroke="#000000" stroke-width="1" stroke-linejoin="round" stroke-linecap="butt"/><path d=" M 201.76,0 Q 201.76,83.572 142.666,142.666 Q 83.572,201.76 0,201.76 L 0,201.76 Q -83.572,201.76 -142.666,142.666 Q -201.76,83.572 -201.76,0 L -201.76,0 Q -201.76,-83.572 -142.666,-142.666 Q -83.572,-201.76 0,-201.76 L 0,-201.76 Q 83.572,-201.76 142.666,-142.666 Q 201.76,-83.572 201.76,0 L 201.76,0 M 200.76,0 Q 200.76,83.158 141.959,141.959 Q 83.158,200.76 0,200.76 L 0,200.76 Q -83.158,200.76 -141.959,141.959 Q -200.76,83.158 -200.76,0 L -200.76,0 Q -200.76,-83.158 -141.959,-141.959 Q -83.158,-200.76 0,-200.76 L 0,-200.76 Q 83.158,-200.76 141.959,-141.959 Q 200.76,-83.158 200.76,0 L 200.76,0" fill="#000000"/><path d=" M 36.786,0 L 79.074,22.942 L 101.068,34.702 L 116.864,42.927 L 131.16,50.165 L 143.956,56.418 L 158.451,63.248 L 174.646,70.655 L 197.439,80.78 L 241.525,100.043 L 196.73,82.491 L 173.454,73.533 L 156.765,67.319 L 141.686,61.899 L 128.216,57.272 L 112.989,52.282 L 96.004,46.928 L 72.137,39.691 L 26.012,26.012 L 39.691,72.137 L 46.928,96.004 L 52.282,112.989 L 57.272,128.216 L 61.899,141.686 L 67.319,156.765 L 73.533,173.454 L 82.491,196.73 L 100.043,241.525 L 80.78,197.439 L 70.655,174.646 L 63.248,158.451 L 56.418,143.956 L 50.165,131.16 L 42.927,116.864 L 34.702,101.068 L 22.942,79.074 L 0,36.786 L -22.942,79.074 L -34.702,101.068 L -42.927,116.864 L -50.165,131.16 L -56.418,143.956 L -63.248,158.451 L -70.655,174.646 L -80.78,197.439 L -100.043,241.525 L -82.491,196.73 L -73.533,173.454 L -67.319,156.765 L -61.899,141.686 L -57.272,128.216 L -52.282,112.989 L -46.928,96.004 L -39.691,72.137 L -26.012,26.012 L -72.137,39.691 L -96.004,46.928 L -112.989,52.282 L -128.216,57.272 L -141.686,61.899 L -156.765,67.319 L -173.454,73.533 L -196.73,82.491 L -241.525,100.043 L -197.439,80.78 L -174.646,70.655 L -158.451,63.248 L -143.956,56.418 L -131.16,50.165 L -116.864,42.927 L -101.068,34.702 L -79.074,22.942 L -36.786,0 L -79.074,-22.942 L -101.068,-34.702 L -116.864,-42.927 L -131.16,-50.165 L -143.956,-56.418 L -158.451,-63.248 L -174.646,-70.655 L -197.439,-80.78 L -241.525,-100.043 L -196.73,-82.491 L -173.454,-73.533 L -156.765,-67.319 L -141.686,-61.899 L -128.216,-57.272 L -112.989,-52.282 L -96.004,-46.928 L -72.137,-39.691 L -26.012,-26.012 L -39.691,-72.137 L -46.928,-96.004 L -52.282,-112.989 L -57.272,-128.216 L -61.899,-141.686 L -67.319,-156.765 L -73.533,-173.454 L -82.491,-196.73 L -100.043,-241.525 L -80.78,-197.439 L -70.655,-174.646 L -63.248,-158.451 L -56.418,-143.956 L -50.165,-131.16 L -42.927,-116.864 L -34.702,-101.068 L -22.942,-79.074 L 0,-36.786 L 22.942,-79.074 L 34.702,-101.068 L 42.927,-116.864 L 50.165,-131.16 L 56.418,-143.956 L 63.248,-158.451 L 70.655,-174.646 L 80.78,-197.439 L 100.043,-241.525 L 82.491,-196.73 L 73.533,-173.454 L 67.319,-156.765 L 61.899,-141.686 L 57.272,-128.216 L 52.282,-112.989 L 46.928,-96.004 L 39.691,-72.137 L 26.012,-26.012 L 72.137,-39.691 L 96.004,-46.928 L 112.989,-52.282 L 128.216,-57.272 L 141.686,-61.899 L 156.765,-67.319 L 173.454,-73.533 L 196.73,-82.491 L 241.525,-100.043 L 197.439,-80.78 L 174.646,-70.655 L 158.451,-63.248 L 143.956,-56.418 L 131.16,-50.165 L 116.864,-42.927 L 101.068,-34.702 L 79.074,-22.942 L 36.786,0" fill="#7F7F7F" stroke="#000000" stroke-width="1" stroke-linejoin="round" stroke-linecap="butt"/><path d=" M 263.885,0 Q 263.885,109.305 186.595,186.595 Q 109.305,263.885 0,263.885 L 0,263.885 Q -109.305,263.885 -186.595,186.595 Q -263.885,109.305 -263.885,0 L -263.885,0 Q -263.885,-109.305 -186.595,-186.595 Q -109.305,-263.885 0,-263.885 L 0,-263.885 Q 109.305,-263.885 186.595,-186.595 Q 263.885,-109.305 263.885,0 L 263.885,0 M 257.181,0 Q 257.181,106.528 181.855,181.855 Q 106.528,257.181 0,257.181 L 0,257.181 Q -106.528,257.181 -181.855,181.855 Q -257.181,106.528 -257.181,0 L -257.181,0 Q -257.181,-106.528 -181.855,-181.855 Q -106.528,-257.181 0,-257.181 L 0,-257.181 Q 106.528,-257.181 181.855,-181.855 Q 257.181,-106.528 257.181,0 L 257.181,0" fill="#7FD4FF" stroke="#000000" stroke-width="1" stroke-linejoin="round" stroke-linecap="butt"/><path d=" M 88.04,0 L 100.467,43.777 L 107.53,66.149 L 113.371,81.708 L 119.371,95.319 L 125.531,106.981 L 133.39,119.61 L 142.948,133.206 L 157.444,151.652 L 186.595,186.595 L 151.652,157.444 L 133.206,142.948 L 119.61,133.39 L 106.981,125.531 L 95.319,119.371 L 81.708,113.371 L 66.149,107.53 L 43.777,100.467 L 0,88.04 L -43.777,100.467 L -66.149,107.53 L -81.708,113.371 L -95.319,119.371 L -106.981,125.531 L -119.61,133.39 L -133.206,142.948 L -151.652,157.444 L -186.595,186.595 L -157.444,151.652 L -142.948,133.206 L -133.39,119.61 L -125.531,106.981 L -119.371,95.319 L -113.371,81.708 L -107.53,66.149 L -100.467,43.777 L -88.04,0 L -100.467,-43.777 L -107.53,-66.149 L -113.371,-81.708 L -119.371,-95.319 L -125.531,-106.981 L -133.39,-119.61 L -142.948,-133.206 L -157.444,-151.652 L -186.595,-186.595 L -151.652,-157.444 L -133.206,-142.948 L -119.61,-133.39 L -106.981,-125.531 L -95.319,-119.371 L -81.708,-113.371 L -66.149,-107.53 L -43.777,-100.467 L 0,-88.04 L 43.777,-100.467 L 66.149,-107.53 L 81.708,-113.371 L 95.319,-119.371 L 106.981,-125.531 L 119.61,-133.39 L 133.206,-142.948 L 151.652,-157.444 L 186.595,-186.595 L 157.444,-151.652 L 142.948,-133.206 L 133.39,-119.61 L 125.531,-106.981 L 119.371,-95.319 L 113.371,-81.708 L 107.53,-66.149 L 100.467,-43.777 L 88.04,0" fill="#7F7F7F"/><path d=" M 0,0 L 186.595,186.595 L 151.652,157.444 L 133.206,142.948 L 119.61,133.39 L 106.981,125.531 L 95.319,119.371 L 81.708,113.371 L 66.149,107.53 L 43.777,100.467 L 0,88.04 M 0,0 L -186.595,186.595 L -157.444,151.652 L -142.948,133.206 L -133.39,119.61 L -125.531,106.981 L -119.371,95.319 L -113.371,81.708 L -107.53,66.149 L -100.467,43.777 L -88.04,0 M 0,0 L -186.595,-186.595 L -151.652,-157.444 L -133.206,-142.948 L -119.61,-133.39 L -106.981,-125.531 L -95.319,-119.371 L -81.708,-113.371 L -66.149,-107.53 L -43.777,-100.467 L 0,-88.04 M 0,0 L 186.595,-186.595 L 157.444,-151.652 L 142.948,-133.206 L 133.39,-119.61 L 125.531,-106.981 L 119.371,-95.319 L 113.371,-81.708 L 107.53,-66.149 L 100.467,-43.777 L 88.04,0" fill="#7FD4FF"/><path d=" M 88.04,0 L 100.467,43.777 L 107.53,66.149 L 113.371,81.708 L 119.371,95.319 L 125.531,106.981 L 133.39,119.61 L 142.948,133.206 L 157.444,151.652 L 186.595,186.595 L 151.652,157.444 L 133.206,142.948 L 119.61,133.39 L 106.981,125.531 L 95.319,119.371 L 81.708,113.371 L 66.149,107.53 L 43.777,100.467 L 0,88.04 L -43.777,100.467 L -66.149,107.53 L -81.708,113.371 L -95.319,119.371 L -106.981,125.531 L -119.61,133.39 L -133.206,142.948 L -151.652,157.444 L -186.595,186.595 L -157.444,151.652 L -142.948,133.206 L -133.39,119.61 L -125.531,106.981 L -119.371,95.319 L -113.371,81.708 L -107.53,66.149 L -100.467,43.777 L -88.04,0 L -100.467,-43.777 L -107.53,-66.149 L -113.371,-81.708 L -119.371,-95.319 L -125.531,-106.981 L -133.39,-119.61 L -142.948,-133.206 L -157.444,-151.652 L -186.595,-186.595 L -151.652,-157.444 L -133.206,-142.948 L -119.61,-133.39 L -106.981,-125.531 L -95.319,-119.371 L -81.708,-113.371 L -66.149,-107.53 L -43.777,-100.467 L 0,-88.04 L 43.777,-100.467 L 66.149,-107.53 L 81.708,-113.371 L 95.319,-119.371 L 106.981,-125.531 L 119.61,-133.39 L 133.206,-142.948 L 151.652,-157.444 L 186.595,-186.595 L 157.444,-151.652 L 142.948,-133.206 L 133.39,-119.61 L 125.531,-106.981 L 119.371,-95.319 L 113.371,-81.708 L 107.53,-66.149 L 100.467,-43.777 L 88.04,0 M 0,0 L 88.04,0 M 0,0 L 186.595,186.595 M 0,0 L 0,88.04 M 0,0 L -186.595,186.595 M 0,0 L -88.04,0 M 0,0 L -186.595,-186.595 M 0,0 L 0,-88.04 M 0,0 L 186.595,-186.595" stroke="#000000" stroke-width="1" stroke-linejoin="round" stroke-linecap="butt"/><path d=" M 0,-91.584 L 59.223,-58.972 L 90.232,-43.047 L 112.767,-32.938 L 133.41,-25.021 L 152.16,-19.297 L 173.705,-14.335 L 198.044,-10.134 L 232.66,-6.025 L 300,0 L 232.66,6.025 L 198.044,10.134 L 173.705,14.335 L 152.16,19.297 L 133.41,25.021 L 112.767,32.938 L 90.232,43.047 L 59.223,58.972 L 0,91.584 L -59.223,58.972 L -90.232,43.047 L -112.767,32.938 L -133.41,25.021 L -152.16,19.297 L -173.705,14.335 L -198.044,10.134 L -232.66,6.025 L -300,0 L -232.66,-6.025 L -198.044,-10.134 L -173.705,-14.335 L -152.16,-19.297 L -133.41,-25.021 L -112.767,-32.938 L -90.232,-43.047 L -59.223,-58.972 L 0,-91.584" fill="#7F7F7F"/><path d=" M 0,0 L 300,0 L 232.66,6.025 L 198.044,10.134 L 173.705,14.335 L 152.16,19.297 L 133.41,25.021 L 112.767,32.938 L 90.232,43.047 L 59.223,58.972 L 0,91.584 M 0,0 L -300,0 L -232.66,-6.025 L -198.044,-10.134 L -173.705,-14.335 L -152.16,-19.297 L -133.41,-25.021 L -112.767,-32.938 L -90.232,-43.047 L -59.223,-58.972 L 0,-91.584" fill="#7FD4FF"/><path d=" M 0,-91.584 L 59.223,-58.972 L 90.232,-43.047 L 112.767,-32.938 L 133.41,-25.021 L 152.16,-19.297 L 173.705,-14.335 L 198.044,-10.134 L 232.66,-6.025 L 300,0 L 232.66,6.025 L 198.044,10.134 L 173.705,14.335 L 152.16,19.297 L 133.41,25.021 L 112.767,32.938 L 90.232,43.047 L 59.223,58.972 L 0,91.584 L -59.223,58.972 L -90.232,43.047 L -112.767,32.938 L -133.41,25.021 L -152.16,19.297 L -173.705,14.335 L -198.044,10.134 L -232.66,6.025 L -300,0 L -232.66,-6.025 L -198.044,-10.134 L -173.705,-14.335 L -152.16,-19.297 L -133.41,-25.021 L -112.767,-32.938 L -90.232,-43.047 L -59.223,-58.972 L 0,-91.584 M 0,0 L 0,-91.584 M 0,0 L 300,0 M 0,0 L 0,91.584 M 0,0 L -300,0" stroke="#000000" stroke-width="1" stroke-linejoin="round" stroke-linecap="butt"/><path d=" M 91.584,0 L 56.687,56.929 L 44.507,93.294 L 35.873,122.818 L 28.312,150.958 L 22.441,176.949 L 17.085,207.037 L 12.339,241.141 L 7.502,289.718 L 0,384.275 L -7.502,289.718 L -12.339,241.141 L -17.085,207.037 L -22.441,176.949 L -28.312,150.958 L -35.873,122.818 L -44.507,93.294 L -56.687,56.929 L -91.584,0 L -56.687,-56.929 L -44.507,-93.294 L -35.873,-122.818 L -28.312,-150.958 L -22.441,-176.949 L -17.085,-207.037 L -12.339,-241.141 L -7.502,-289.718 L 0,-384.275 L 7.502,-289.718 L 12.339,-241.141 L 17.085,-207.037 L 22.441,-176.949 L 28.312,-150.958 L 35.873,-122.818 L 44.507,-93.294 L 56.687,-56.929 L 91.584,0" fill="#7F7F7F"/><path d=" M 0,0 L 0,384.275 L -7.502,289.718 L -12.339,241.141 L -17.085,207.037 L -22.441,176.949 L -28.312,150.958 L -35.873,122.818 L -44.507,93.294 L -56.687,56.929 L -91.584,0 M 0,0 L 0,-384.275 L 7.502,-289.718 L 12.339,-241.141 L 17.085,-207.037 L 22.441,-176.949 L 28.312,-150.958 L 35.873,-122.818 L 44.507,-93.294 L 56.687,-56.929 L 91.584,0" fill="#7FD4FF"/><path d=" M 91.584,0 L 56.687,56.929 L 44.507,93.294 L 35.873,122.818 L 28.312,150.958 L 22.441,176.949 L 17.085,207.037 L 12.339,241.141 L 7.502,289.718 L 0,384.275 L -7.502,289.718 L -12.339,241.141 L -17.085,207.037 L -22.441,176.949 L -28.312,150.958 L -35.873,122.818 L -44.507,93.294 L -56.687,56.929 L -91.584,0 L -56.687,-56.929 L -44.507,-93.294 L -35.873,-122.818 L -28.312,-150.958 L -22.441,-176.949 L -17.085,-207.037 L -12.339,-241.141 L -7.502,-289.718 L 0,-384.275 L 7.502,-289.718 L 12.339,-241.141 L 17.085,-207.037 L 22.441,-176.949 L 28.312,-150.958 L 35.873,-122.818 L 44.507,-93.294 L 56.687,-56.929 L 91.584,0 M 0,0 L 91.584,0 M 0,0 L 0,384.275 M 0,0 L -91.584,0 M 0,0 L 0,-384.275" stroke="#000000" stroke-width="1" stroke-linejoin="round" stroke-linecap="butt"/><path d=" M 223.019,4.281 L 219.185,0 L 223.019,-4.281 L 229.321,0 L 223.019,4.281" fill="#7FD4FF" stroke="#000000" stroke-width="1" stroke-linejoin="round" stroke-linecap="butt"/><path d=" M 217.899,47.707 L 214.974,42.761 L 219.569,39.311 L 224.915,44.738 L 217.899,47.707" fill="#7FD4FF" stroke="#000000" stroke-width="1" stroke-linejoin="round" stroke-linecap="butt"/><path d=" M 204.405,89.301 L 202.501,83.879 L 207.681,81.391 L 211.865,87.757 L 204.405,89.301" fill="#7FD4FF" stroke="#000000" stroke-width="1" stroke-linejoin="round" stroke-linecap="butt"/><path d=" M 183.056,127.462 L 182.246,121.773 L 187.812,120.344 L 190.673,127.404 L 183.056,127.462" fill="#7FD4FF" stroke="#000000" stroke-width="1" stroke-linejoin="round" stroke-linecap="butt"/><path d=" M 154.672,160.725 L 154.987,154.987 L 160.725,154.672 L 162.154,162.154 L 154.672,160.725" fill="#7FD4FF" stroke="#000000" stroke-width="1" stroke-linejoin="round" stroke-linecap="butt"/><path d=" M 120.344,187.812 L 121.773,182.246 L 127.462,183.056 L 127.404,190.673 L 120.344,187.812" fill="#7FD4FF" stroke="#000000" stroke-width="1" stroke-linejoin="round" stroke-linecap="butt"/><path d=" M 81.391,207.681 L 83.879,202.501 L 89.301,204.405 L 87.757,211.865 L 81.391,207.681" fill="#7FD4FF" stroke="#000000" stroke-width="1" stroke-linejoin="round" stroke-linecap="butt"/><path d=" M 39.311,219.569 L 42.761,214.974 L 47.707,217.899 L 44.738,224.915 L 39.311,219.569" fill="#7FD4FF" stroke="#000000" stroke-width="1" stroke-linejoin="round" stroke-linecap="butt"/><path d=" M -4.281,223.019 L 0,219.185 L 4.281,223.019 L 0,229.321 L -4.281,223.019" fill="#7FD4FF" stroke="#000000" stroke-width="1" stroke-linejoin="round" stroke-linecap="butt"/><path d=" M -47.707,217.899 L -42.761,214.974 L -39.311,219.569 L -44.738,224.915 L -47.707,217.899" fill="#7FD4FF" stroke="#000000" stroke-width="1" stroke-linejoin="round" stroke-linecap="butt"/><path d=" M -89.301,204.405 L -83.879,202.501 L -81.391,207.681 L -87.757,211.865 L -89.301,204.405" fill="#7FD4FF" stroke="#000000" stroke-width="1" stroke-linejoin="round" stroke-linecap="butt"/><path d=" M -127.462,183.056 L -121.773,182.246 L -120.344,187.812 L -127.404,190.673 L -127.462,183.056" fill="#7FD4FF" stroke="#000000" stroke-width="1" stroke-linejoin="round" stroke-linecap="butt"/><path d=" M -160.725,154.672 L -154.987,154.987 L -154.672,160.725 L -162.154,162.154 L -160.725,154.672" fill="#7FD4FF" stroke="#000000" stroke-width="1" stroke-linejoin="round" stroke-linecap="butt"/><path d=" M -187.812,120.344 L -182.246,121.773 L -183.056,127.462 L -190.673,127.404 L -187.812,120.344" fill="#7FD4FF" stroke="#000000" stroke-width="1" stroke-linejoin="round" stroke-linecap="butt"/><path d=" M -207.681,81.391 L -202.501,83.879 L -204.405,89.301 L -211.865,87.757 L -207.681,81.391" fill="#7FD4FF" stroke="#000000" stroke-width="1" stroke-linejoin="round" stroke-linecap="butt"/><path d=" M -219.569,39.311 L -214.974,42.761 L -217.899,47.707 L -224.915,44.738 L -219.569,39.311" fill="#7FD4FF" stroke="#000000" stroke-width="1" stroke-linejoin="round" stroke-linecap="butt"/><path d=" M -223.019,-4.281 L -219.185,0 L -223.019,4.281 L -229.321,0 L -223.019,-4.281" fill="#7FD4FF" stroke="#000000" stroke-width="1" stroke-linejoin="round" stroke-linecap="butt"/><path d=" M -217.899,-47.707 L -214.974,-42.761 L -219.569,-39.311 L -224.915,-44.738 L -217.899,-47.707" fill="#7FD4FF" stroke="#000000" stroke-width="1" stroke-linejoin="round" stroke-linecap="butt"/><path d=" M -204.405,-89.301 L -202.501,-83.879 L -207.681,-81.391 L -211.865,-87.757 L -204.405,-89.301" fill="#7FD4FF" stroke="#000000" stroke-width="1" stroke-linejoin="round" stroke-linecap="butt"/><path d=" M -183.056,-127.462 L -182.246,-121.773 L -187.812,-120.344 L -190.673,-127.404 L -183.056,-127.462" fill="#7FD4FF" stroke="#000000" stroke-width="1" stroke-linejoin="round" stroke-linecap="butt"/><path d=" M -154.672,-160.725 L -154.987,-154.987 L -160.725,-154.672 L -162.154,-162.154 L -154.672,-160.725" fill="#7FD4FF" stroke="#000000" stroke-width="1" stroke-linejoin="round" stroke-linecap="butt"/><path d=" M -120.344,-187.812 L -121.773,-182.246 L -127.462,-183.056 L -127.404,-190.673 L -120.344,-187.812" fill="#7FD4FF" stroke="#000000" stroke-width="1" stroke-linejoin="round" stroke-linecap="butt"/><path d=" M -81.391,-207.681 L -83.879,-202.501 L -89.301,-204.405 L -87.757,-211.865 L -81.391,-207.681" fill="#7FD4FF" stroke="#000000" stroke-width="1" stroke-linejoin="round" stroke-linecap="butt"/><path d=" M -39.311,-219.569 L -42.761,-214.974 L -47.707,-217.899 L -44.738,-224.915 L -39.311,-219.569" fill="#7FD4FF" stroke="#000000" stroke-width="1" stroke-linejoin="round" stroke-linecap="butt"/><path d=" M 4.281,-223.019 L 0,-219.185 L -4.281,-223.019 L 0,-229.321 L 4.281,-223.019" fill="#7FD4FF" stroke="#000000" stroke-width="1" stroke-linejoin="round" stroke-linecap="butt"/><path d=" M 47.707,-217.899 L 42.761,-214.974 L 39.311,-219.569 L 44.738,-224.915 L 47.707,-217.899" fill="#7FD4FF" stroke="#000000" stroke-width="1" stroke-linejoin="round" stroke-linecap="butt"/><path d=" M 89.301,-204.405 L 83.879,-202.501 L 81.391,-207.681 L 87.757,-211.865 L 89.301,-204.405" fill="#7FD4FF" stroke="#000000" stroke-width="1" stroke-linejoin="round" stroke-linecap="butt"/><path d=" M 127.462,-183.056 L 121.773,-182.246 L 120.344,-187.812 L 127.404,-190.673 L 127.462,-183.056" fill="#7FD4FF" stroke="#000000" stroke-width="1" stroke-linejoin="round" stroke-linecap="butt"/><path d=" M 160.725,-154.672 L 154.987,-154.987 L 154.672,-160.725 L 162.154,-162.154 L 160.725,-154.672" fill="#7FD4FF" stroke="#000000" stroke-width="1" stroke-linejoin="round" stroke-linecap="butt"/><path d=" M 187.812,-120.344 L 182.246,-121.773 L 183.056,-127.462 L 190.673,-127.404 L 187.812,-120.344" fill="#7FD4FF" stroke="#000000" stroke-width="1" stroke-linejoin="round" stroke-linecap="butt"/><path d=" M 207.681,-81.391 L 202.501,-83.879 L 204.405,-89.301 L 211.865,-87.757 L 207.681,-81.391" fill="#7FD4FF" stroke="#000000" stroke-width="1" stroke-linejoin="round" stroke-linecap="butt"/><path d=" M 219.569,-39.311 L 214.974,-42.761 L 217.899,-47.707 L 224.915,-44.738 L 219.569,-39.311" fill="#7FD4FF" stroke="#000000" stroke-width="1" stroke-linejoin="round" stroke-linecap="butt"/><path d=" M 226.603,21.86 Q 226.603,23.789 225.239,25.153 Q 223.875,26.517 221.945,26.517 L 221.945,26.517 Q 220.016,26.517 218.652,25.153 Q 217.288,23.789 217.288,21.86 L 217.288,21.86 Q 217.288,19.931 218.652,18.566 Q 220.016,17.202 221.945,17.202 L 221.945,17.202 Q 223.875,17.202 225.239,18.566 Q 226.603,19.931 226.603,21.86 L 226.603,21.86" fill="#7F7F7F" stroke="#000000" stroke-width="1" stroke-linejoin="round" stroke-linecap="butt"/><path d=" M 218.074,64.739 Q 218.074,66.668 216.709,68.032 Q 215.345,69.396 213.416,69.396 L 213.416,69.396 Q 211.487,69.396 210.123,68.032 Q 208.759,66.668 208.759,64.739 L 208.759,64.739 Q 208.759,62.81 210.123,61.446 Q 211.487,60.082 213.416,60.082 L 213.416,60.082 Q 215.345,60.082 216.709,61.446 Q 218.074,62.81 218.074,64.739 L 218.074,64.739" fill="#7F7F7F" stroke="#000000" stroke-width="1" stroke-linejoin="round" stroke-linecap="butt"/><path d=" M 201.343,105.131 Q 201.343,107.06 199.979,108.424 Q 198.615,109.788 196.685,109.788 L 196.685,109.788 Q 194.756,109.788 193.392,108.424 Q 192.028,107.06 192.028,105.131 L 192.028,105.131 Q 192.028,103.201 193.392,101.837 Q 194.756,100.473 196.685,100.473 L 196.685,100.473 Q 198.615,100.473 199.979,101.837 Q 201.343,103.201 201.343,105.131 L 201.343,105.131" fill="#7F7F7F" stroke="#000000" stroke-width="1" stroke-linejoin="round" stroke-linecap="butt"/><path d=" M 177.054,141.482 Q 177.054,143.411 175.69,144.775 Q 174.325,146.139 172.396,146.139 L 172.396,146.139 Q 170.467,146.139 169.103,144.775 Q 167.739,143.411 167.739,141.482 L 167.739,141.482 Q 167.739,139.553 169.103,138.189 Q 170.467,136.825 172.396,136.825 L 172.396,136.825 Q 174.325,136.825 175.69,138.189 Q 177.054,139.553 177.054,141.482 L 177.054,141.482" fill="#7F7F7F" stroke="#000000" stroke-width="1" stroke-linejoin="round" stroke-linecap="butt"/><path d=" M 146.139,172.396 Q 146.139,174.325 144.775,175.69 Q 143.411,177.054 141.482,177.054 L 141.482,177.054 Q 139.553,177.054 138.189,175.69 Q 136.825,174.325 136.825,172.396 L 136.825,172.396 Q 136.825,170.467 138.189,169.103 Q 139.553,167.739 141.482,167.739 L 141.482,167.739 Q 143.411,167.739 144.775,169.103 Q 146.139,170.467 146.139,172.396 L 146.139,172.396" fill="#7F7F7F" stroke="#000000" stroke-width="1" stroke-linejoin="round" stroke-linecap="butt"/><path d=" M 109.788,196.685 Q 109.788,198.615 108.424,199.979 Q 107.06,201.343 105.131,201.343 L 105.131,201.343 Q 103.201,201.343 101.837,199.979 Q 100.473,198.615 100.473,196.685 L 100.473,196.685 Q 100.473,194.756 101.837,193.392 Q 103.201,192.028 105.131,192.028 L 105.131,192.028 Q 107.06,192.028 108.424,193.392 Q 109.788,194.756 109.788,196.685 L 109.788,196.685" fill="#7F7F7F" stroke="#000000" stroke-width="1" stroke-linejoin="round" stroke-linecap="butt"/><path d=" M 69.396,213.416 Q 69.396,215.345 68.032,216.709 Q 66.668,218.074 64.739,218.074 L 64.739,218.074 Q 62.81,218.074 61.446,216.709 Q 60.082,215.345 60.082,213.416 L 60.082,213.416 Q 60.082,211.487 61.446,210.123 Q 62.81,208.759 64.739,208.759 L 64.739,208.759 Q 66.668,208.759 68.032,210.123 Q 69.396,211.487 69.396,213.416 L 69.396,213.416" fill="#7F7F7F" stroke="#000000" stroke-width="1" stroke-linejoin="round" stroke-linecap="butt"/><path d=" M 26.517,221.945 Q 26.517,223.875 25.153,225.239 Q 23.789,226.603 21.86,226.603 L 21.86,226.603 Q 19.931,226.603 18.566,225.239 Q 17.202,223.875 17.202,221.945 L 17.202,221.945 Q 17.202,220.016 18.566,218.652 Q 19.931,217.288 21.86,217.288 L 21.86,217.288 Q 23.789,217.288 25.153,218.652 Q 26.517,220.016 26.517,221.945 L 26.517,221.945" fill="#7F7F7F" stroke="#000000" stroke-width="1" stroke-linejoin="round" stroke-linecap="butt"/><path d=" M -17.202,221.945 Q -17.202,223.875 -18.566,225.239 Q -19.931,226.603 -21.86,226.603 L -21.86,226.603 Q -23.789,226.603 -25.153,225.239 Q -26.517,223.875 -26.517,221.945 L -26.517,221.945 Q -26.517,220.016 -25.153,218.652 Q -23.789,217.288 -21.86,217.288 L -21.86,217.288 Q -19.931,217.288 -18.566,218.652 Q -17.202,220.016 -17.202,221.945 L -17.202,221.945" fill="#7F7F7F" stroke="#000000" stroke-width="1" stroke-linejoin="round" stroke-linecap="butt"/><path d=" M -60.082,213.416 Q -60.082,215.345 -61.446,216.709 Q -62.81,218.074 -64.739,218.074 L -64.739,218.074 Q -66.668,218.074 -68.032,216.709 Q -69.396,215.345 -69.396,213.416 L -69.396,213.416 Q -69.396,211.487 -68.032,210.123 Q -66.668,208.759 -64.739,208.759 L -64.739,208.759 Q -62.81,208.759 -61.446,210.123 Q -60.082,211.487 -60.082,213.416 L -60.082,213.416" fill="#7F7F7F" stroke="#000000" stroke-width="1" stroke-linejoin="round" stroke-linecap="butt"/><path d=" M -100.473,196.685 Q -100.473,198.615 -101.837,199.979 Q -103.201,201.343 -105.131,201.343 L -105.131,201.343 Q -107.06,201.343 -108.424,199.979 Q -109.788,198.615 -109.788,196.685 L -109.788,196.685 Q -109.788,194.756 -108.424,193.392 Q -107.06,192.028 -105.131,192.028 L -105.131,192.028 Q -103.201,192.028 -101.837,193.392 Q -100.473,194.756 -100.473,196.685 L -100.473,196.685" fill="#7F7F7F" stroke="#000000" stroke-width="1" stroke-linejoin="round" stroke-linecap="butt"/><path d=" M -136.825,172.396 Q -136.825,174.325 -138.189,175.69 Q -139.553,177.054 -141.482,177.054 L -141.482,177.054 Q -143.411,177.054 -144.775,175.69 Q -146.139,174.325 -146.139,172.396 L -146.139,172.396 Q -146.139,170.467 -144.775,169.103 Q -143.411,167.739 -141.482,167.739 L -141.482,167.739 Q -139.553,167.739 -138.189,169.103 Q -136.825,170.467 -136.825,172.396 L -136.825,172.396" fill="#7F7F7F" stroke="#000000" stroke-width="1" stroke-linejoin="round" stroke-linecap="butt"/><path d=" M -167.739,141.482 Q -167.739,143.411 -169.103,144.775 Q -170.467,146.139 -172.396,146.139 L -172.396,146.139 Q -174.325,146.139 -175.69,144.775 Q -177.054,143.411 -177.054,141.482 L -177.054,141.482 Q -177.054,139.553 -175.69,138.189 Q -174.325,136.825 -172.396,136.825 L -172.396,136.825 Q -170.467,136.825 -169.103,138.189 Q -167.739,139.553 -167.739,141.482 L -167.739,141.482" fill="#7F7F7F" stroke="#000000" stroke-width="1" stroke-linejoin="round" stroke-linecap="butt"/><path d=" M -192.028,105.131 Q -192.028,107.06 -193.392,108.424 Q -194.756,109.788 -196.685,109.788 L -196.685,109.788 Q -198.615,109.788 -199.979,108.424 Q -201.343,107.06 -201.343,105.131 L -201.343,105.131 Q -201.343,103.201 -199.979,101.837 Q -198.615,100.473 -196.685,100.473 L -196.685,100.473 Q -194.756,100.473 -193.392,101.837 Q -192.028,103.201 -192.028,105.131 L -192.028,105.131" fill="#7F7F7F" stroke="#000000" stroke-width="1" stroke-linejoin="round" stroke-linecap="butt"/><path d=" M -208.759,64.739 Q -208.759,66.668 -210.123,68.032 Q -211.487,69.396 -213.416,69.396 L -213.416,69.396 Q -215.345,69.396 -216.709,68.032 Q -218.074,66.668 -218.074,64.739 L -218.074,64.739 Q -218.074,62.81 -216.709,61.446 Q -215.345,60.082 -213.416,60.082 L -213.416,60.082 Q -211.487,60.082 -210.123,61.446 Q -208.759,62.81 -208.759,64.739 L -208.759,64.739" fill="#7F7F7F" stroke="#000000" stroke-width="1" stroke-linejoin="round" stroke-linecap="butt"/><path d=" M -217.288,21.86 Q -217.288,23.789 -218.652,25.153 Q -220.016,26.517 -221.945,26.517 L -221.945,26.517 Q -223.875,26.517 -225.239,25.153 Q -226.603,23.789 -226.603,21.86 L -226.603,21.86 Q -226.603,19.931 -225.239,18.566 Q -223.875,17.202 -221.945,17.202 L -221.945,17.202 Q -220.016,17.202 -218.652,18.566 Q -217.288,19.931 -217.288,21.86 L -217.288,21.86" fill="#7F7F7F" stroke="#000000" stroke-width="1" stroke-linejoin="round" stroke-linecap="butt"/><path d=" M -217.288,-21.86 Q -217.288,-19.931 -218.652,-18.566 Q -220.016,-17.202 -221.945,-17.202 L -221.945,-17.202 Q -223.875,-17.202 -225.239,-18.566 Q -226.603,-19.931 -226.603,-21.86 L -226.603,-21.86 Q -226.603,-23.789 -225.239,-25.153 Q -223.875,-26.517 -221.945,-26.517 L -221.945,-26.517 Q -220.016,-26.517 -218.652,-25.153 Q -217.288,-23.789 -217.288,-21.86 L -217.288,-21.86" fill="#7F7F7F" stroke="#000000" stroke-width="1" stroke-linejoin="round" stroke-linecap="butt"/><path d=" M -208.759,-64.739 Q -208.759,-62.81 -210.123,-61.446 Q -211.487,-60.082 -213.416,-60.082 L -213.416,-60.082 Q -215.345,-60.082 -216.709,-61.446 Q -218.074,-62.81 -218.074,-64.739 L -218.074,-64.739 Q -218.074,-66.668 -216.709,-68.032 Q -215.345,-69.396 -213.416,-69.396 L -213.416,-69.396 Q -211.487,-69.396 -210.123,-68.032 Q -208.759,-66.668 -208.759,-64.739 L -208.759,-64.739" fill="#7F7F7F" stroke="#000000" stroke-width="1" stroke-linejoin="round" stroke-linecap="butt"/><path d=" M -192.028,-105.131 Q -192.028,-103.201 -193.392,-101.837 Q -194.756,-100.473 -196.685,-100.473 L -196.685,-100.473 Q -198.615,-100.473 -199.979,-101.837 Q -201.343,-103.201 -201.343,-105.131 L -201.343,-105.131 Q -201.343,-107.06 -199.979,-108.424 Q -198.615,-109.788 -196.685,-109.788 L -196.685,-109.788 Q -194.756,-109.788 -193.392,-108.424 Q -192.028,-107.06 -192.028,-105.131 L -192.028,-105.131" fill="#7F7F7F" stroke="#000000" stroke-width="1" stroke-linejoin="round" stroke-linecap="butt"/><path d=" M -167.739,-141.482 Q -167.739,-139.553 -169.103,-138.189 Q -170.467,-136.825 -172.396,-136.825 L -172.396,-136.825 Q -174.325,-136.825 -175.69,-138.189 Q -177.054,-139.553 -177.054,-141.482 L -177.054,-141.482 Q -177.054,-143.411 -175.69,-144.775 Q -174.325,-146.139 -172.396,-146.139 L -172.396,-146.139 Q -170.467,-146.139 -169.103,-144.775 Q -167.739,-143.411 -167.739,-141.482 L -167.739,-141.482" fill="#7F7F7F" stroke="#000000" stroke-width="1" stroke-linejoin="round" stroke-linecap="butt"/><path d=" M -136.825,-172.396 Q -136.825,-170.467 -138.189,-169.103 Q -139.553,-167.739 -141.482,-167.739 L -141.482,-167.739 Q -143.411,-167.739 -144.775,-169.103 Q -146.139,-170.467 -146.139,-172.396 L -146.139,-172.396 Q -146.139,-174.325 -144.775,-175.69 Q -143.411,-177.054 -141.482,-177.054 L -141.482,-177.054 Q -139.553,-177.054 -138.189,-175.69 Q -136.825,-174.325 -136.825,-172.396 L -136.825,-172.396" fill="#7F7F7F" stroke="#000000" stroke-width="1" stroke-linejoin="round" stroke-linecap="butt"/><path d=" M -100.473,-196.685 Q -100.473,-194.756 -101.837,-193.392 Q -103.201,-192.028 -105.131,-192.028 L -105.131,-192.028 Q -107.06,-192.028 -108.424,-193.392 Q -109.788,-194.756 -109.788,-196.685 L -109.788,-196.685 Q -109.788,-198.615 -108.424,-199.979 Q -107.06,-201.343 -105.131,-201.343 L -105.131,-201.343 Q -103.201,-201.343 -101.837,-199.979 Q -100.473,-198.615 -100.473,-196.685 L -100.473,-196.685" fill="#7F7F7F" stroke="#000000" stroke-width="1" stroke-linejoin="round" stroke-linecap="butt"/><path d=" M -60.082,-213.416 Q -60.082,-211.487 -61.446,-210.123 Q -62.81,-208.759 -64.739,-208.759 L -64.739,-208.759 Q -66.668,-208.759 -68.032,-210.123 Q -69.396,-211.487 -69.396,-213.416 L -69.396,-213.416 Q -69.396,-215.345 -68.032,-216.709 Q -66.668,-218.074 -64.739,-218.074 L -64.739,-218.074 Q -62.81,-218.074 -61.446,-216.709 Q -60.082,-215.345 -60.082,-213.416 L -60.082,-213.416" fill="#7F7F7F" stroke="#000000" stroke-width="1" stroke-linejoin="round" stroke-linecap="butt"/><path d=" M -17.202,-221.945 Q -17.202,-220.016 -18.566,-218.652 Q -19.931,-217.288 -21.86,-217.288 L -21.86,-217.288 Q -23.789,-217.288 -25.153,-218.652 Q -26.517,-220.016 -26.517,-221.945 L -26.517,-221.945 Q -26.517,-223.875 -25.153,-225.239 Q -23.789,-226.603 -21.86,-226.603 L -21.86,-226.603 Q -19.931,-226.603 -18.566,-225.239 Q -17.202,-223.875 -17.202,-221.945 L -17.202,-221.945" fill="#7F7F7F" stroke="#000000" stroke-width="1" stroke-linejoin="round" stroke-linecap="butt"/><path d=" M 26.517,-221.945 Q 26.517,-220.016 25.153,-218.652 Q 23.789,-217.288 21.86,-217.288 L 21.86,-217.288 Q 19.931,-217.288 18.566,-218.652 Q 17.202,-220.016 17.202,-221.945 L 17.202,-221.945 Q 17.202,-223.875 18.566,-225.239 Q 19.931,-226.603 21.86,-226.603 L 21.86,-226.603 Q 23.789,-226.603 25.153,-225.239 Q 26.517,-223.875 26.517,-221.945 L 26.517,-221.945" fill="#7F7F7F" stroke="#000000" stroke-width="1" stroke-linejoin="round" stroke-linecap="butt"/><path d=" M 69.396,-213.416 Q 69.396,-211.487 68.032,-210.123 Q 66.668,-208.759 64.739,-208.759 L 64.739,-208.759 Q 62.81,-208.759 61.446,-210.123 Q 60.082,-211.487 60.082,-213.416 L 60.082,-213.416 Q 60.082,-215.345 61.446,-216.709 Q 62.81,-218.074 64.739,-218.074 L 64.739,-218.074 Q 66.668,-218.074 68.032,-216.709 Q 69.396,-215.345 69.396,-213.416 L 69.396,-213.416" fill="#7F7F7F" stroke="#000000" stroke-width="1" stroke-linejoin="round" stroke-linecap="butt"/><path d=" M 109.788,-196.685 Q 109.788,-194.756 108.424,-193.392 Q 107.06,-192.028 105.131,-192.028 L 105.131,-192.028 Q 103.201,-192.028 101.837,-193.392 Q 100.473,-194.756 100.473,-196.685 L 100.473,-196.685 Q 100.473,-198.615 101.837,-199.979 Q 103.201,-201.343 105.131,-201.343 L 105.131,-201.343 Q 107.06,-201.343 108.424,-199.979 Q 109.788,-198.615 109.788,-196.685 L 109.788,-196.685" fill="#7F7F7F" stroke="#000000" stroke-width="1" stroke-linejoin="round" stroke-linecap="butt"/><path d=" M 146.139,-172.396 Q 146.139,-170.467 144.775,-169.103 Q 143.411,-167.739 141.482,-167.739 L 141.482,-167.739 Q 139.553,-167.739 138.189,-169.103 Q 136.825,-170.467 136.825,-172.396 L 136.825,-172.396 Q 136.825,-174.325 138.189,-175.69 Q 139.553,-177.054 141.482,-177.054 L 141.482,-177.054 Q 143.411,-177.054 144.775,-175.69 Q 146.139,-174.325 146.139,-172.396 L 146.139,-172.396" fill="#7F7F7F" stroke="#000000" stroke-width="1" stroke-linejoin="round" stroke-linecap="butt"/><path d=" M 177.054,-141.482 Q 177.054,-139.553 175.69,-138.189 Q 174.325,-136.825 172.396,-136.825 L 172.396,-136.825 Q 170.467,-136.825 169.103,-138.189 Q 167.739,-139.553 167.739,-141.482 L 167.739,-141.482 Q 167.739,-143.411 169.103,-144.775 Q 170.467,-146.139 172.396,-146.139 L 172.396,-146.139 Q 174.325,-146.139 175.69,-144.775 Q 177.054,-143.411 177.054,-141.482 L 177.054,-141.482" fill="#7F7F7F" stroke="#000000" stroke-width="1" stroke-linejoin="round" stroke-linecap="butt"/><path d=" M 201.343,-105.131 Q 201.343,-103.201 199.979,-101.837 Q 198.615,-100.473 196.685,-100.473 L 196.685,-100.473 Q 194.756,-100.473 193.392,-101.837 Q 192.028,-103.201 192.028,-105.131 L 192.028,-105.131 Q 192.028,-107.06 193.392,-108.424 Q 194.756,-109.788 196.685,-109.788 L 196.685,-109.788 Q 198.615,-109.788 199.979,-108.424 Q 201.343,-107.06 201.343,-105.131 L 201.343,-105.131" fill="#7F7F7F" stroke="#000000" stroke-width="1" stroke-linejoin="round" stroke-linecap="butt"/><path d=" M 218.074,-64.739 Q 218.074,-62.81 216.709,-61.446 Q 215.345,-60.082 213.416,-60.082 L 213.416,-60.082 Q 211.487,-60.082 210.123,-61.446 Q 208.759,-62.81 208.759,-64.739 L 208.759,-64.739 Q 208.759,-66.668 210.123,-68.032 Q 211.487,-69.396 213.416,-69.396 L 213.416,-69.396 Q 215.345,-69.396 216.709,-68.032 Q 218.074,-66.668 218.074,-64.739 L 218.074,-64.739" fill="#7F7F7F" stroke="#000000" stroke-width="1" stroke-linejoin="round" stroke-linecap="butt"/><path d=" M 226.603,-21.86 Q 226.603,-19.931 225.239,-18.566 Q 223.875,-17.202 221.945,-17.202 L 221.945,-17.202 Q 220.016,-17.202 218.652,-18.566 Q 217.288,-19.931 217.288,-21.86 L 217.288,-21.86 Q 217.288,-23.789 218.652,-25.153 Q 220.016,-26.517 221.945,-26.517 L 221.945,-26.517 Q 223.875,-26.517 225.239,-25.153 Q 226.603,-23.789 226.603,-21.86 L 226.603,-21.86" fill="#7F7F7F" stroke="#000000" stroke-width="1" stroke-linejoin="round" stroke-linecap="butt"/><path d=" M -1.578,-384.275 Q -1.578,-444.275 -20.579,-444.275 Q -26.927,-444.275 -26.927,-424.275 Q -26.927,-400.942 -14.232,-394.275 Q -20.579,-414.275 -14.232,-414.275 Q -4.735,-414.275 -4.735,-384.275 Q -4.735,-369.421 -22.458,-354.567 Q -1.578,-369.421 -1.578,-384.275" fill="#7FD4FF" stroke="#000000" stroke-width="1" stroke-linejoin="round" stroke-linecap="butt"/><path d=" M 1.578,-384.275 Q 1.578,-444.275 20.579,-444.275 Q 26.927,-444.275 26.927,-424.275 Q 26.927,-400.942 14.232,-394.275 Q 20.579,-414.275 14.232,-414.275 Q 4.735,-414.275 4.735,-384.275 Q 4.735,-369.421 22.458,-354.567 Q 1.578,-369.421 1.578,-384.275" fill="#7FD4FF" stroke="#000000" stroke-width="1" stroke-linejoin="round" stroke-linecap="butt"/><path d=" M 0,-302.457 L -3.295,-339.46 Q -1.578,-361.867 -1.578,-384.275 C -1.578388070162974,-420.149198710927 -20.298775865664922,-420.149198710927 -20.298775865664922,-456.0234590525836 Q -20.299,-484.378 0,-512.732 L 0,-302.457" fill="#7FD4FF" stroke="#000000" stroke-width="1" stroke-linejoin="round" stroke-linecap="butt"/><path d=" M 0,-512.732 Q 20.299,-484.378 20.299,-456.023 C 20.29877586566478,-420.149198710927 1.5783880701628328,-420.149198710927 1.5783880701628328,-384.2749383692705 Q 1.578,-361.867 3.295,-339.46 L 0,-302.457 L 0,-512.732" fill="#7F7F7F" stroke="#000000" stroke-width="1" stroke-linejoin="round" stroke-linecap="butt"/><path d=" M 7.103,-383.689 Q 7.103,-383.256 6.797,-382.951 Q 6.491,-382.645 6.059,-382.645 L -6.059,-382.645 Q -6.491,-382.645 -6.797,-382.951 Q -7.103,-383.256 -7.103,-383.689 L -7.103,-384.861 Q -7.103,-385.293 -6.797,-385.599 Q -6.491,-385.905 -6.059,-385.905 L 6.059,-385.905 Q 6.491,-385.905 6.797,-385.599 Q 7.103,-385.293 7.103,-384.861 L 7.103,-383.689" fill="#7FD4FF" stroke="#000000" stroke-width="1" stroke-linejoin="round" stroke-linecap="butt"/><path d=" M -1.829,-384.275 Q -1.829,-444.275 -32.445,-444.275 Q -42.489,-444.275 -42.489,-424.275 Q -42.489,-400.942 -22.402,-394.275 Q -32.445,-414.275 -22.402,-414.275 Q -5.486,-414.275 -5.486,-384.275 Q -5.486,-357.984 -35.157,-331.694 Q -1.829,-357.984 -1.829,-384.275" fill="#7F7F7F" stroke="#000000" stroke-width="1" stroke-linejoin="round" stroke-linecap="butt"/><path d=" M 1.829,-384.275 Q 1.829,-444.275 32.445,-444.275 Q 42.489,-444.275 42.489,-424.275 Q 42.489,-400.942 22.402,-394.275 Q 32.445,-414.275 22.402,-414.275 Q 5.486,-414.275 5.486,-384.275 Q 5.486,-357.984 35.157,-331.694 Q 1.829,-357.984 1.829,-384.275" fill="#7F7F7F" stroke="#000000" stroke-width="1" stroke-linejoin="round" stroke-linecap="butt"/><path d=" M 0,-306.617 L -5.625,-341.019 Q -1.829,-362.647 -1.829,-384.275 C -1.8286607196914075,-415.9242451516114 -22.98955904852637,-415.9242451516114 -22.98955904852637,-447.57355193395233 Q -22.99,-461.459 0,-475.344 L 0,-306.617" fill="#7F7F7F" stroke="#000000" stroke-width="1" stroke-linejoin="round" stroke-linecap="butt"/><path d=" M 0,-475.344 Q 22.99,-461.459 22.99,-447.574 C 22.98955904852623,-415.9242451516114 1.8286607196912663,-415.9242451516114 1.8286607196912663,-384.2749383692705 Q 1.829,-362.647 5.625,-341.019 L 0,-306.617 L 0,-475.344" fill="#7FD4FF" stroke="#000000" stroke-width="1" stroke-linejoin="round" stroke-linecap="butt"/><path d=" M 8.229,-383.124 Q 8.229,-382.865 8.046,-382.682 Q 7.863,-382.499 7.604,-382.499 L -7.604,-382.499 Q -7.863,-382.499 -8.046,-382.682 Q -8.229,-382.865 -8.229,-383.124 L -8.229,-385.426 Q -8.229,-385.685 -8.046,-385.868 Q -7.863,-386.051 -7.604,-386.051 L 7.604,-386.051 Q 7.863,-386.051 8.046,-385.868 Q 8.229,-385.685 8.229,-385.426 L 8.229,-383.124" fill="#7F7F7F" stroke="#000000" stroke-width="1" stroke-linejoin="round" stroke-linecap="butt"/><g id="instance2179" transform="translate(0 0)" stroke-linejoin="round" stroke-linecap="round" fill-rule="evenodd" fill="none"><path d=" M 0,0"/><text dominant-baseline="text-before-edge" style="font: 72px serif" fill="#000000" transform="translate(-25.998 -598.052)">N</text><text dominant-baseline="text-before-edge" style="font: 72px serif" fill="#000000" transform="translate(-20.021 384.275)">S</text><text dominant-baseline="text-before-edge" style="font: 72px serif" fill="#000000" transform="translate(-381.277 -42.66)">W</text><text dominant-baseline="text-before-edge" style="font: 72px serif" fill="#000000" transform="translate(313.32 -42.66)">E</text></g></g></svg>